<svg width="161" height="82" viewBox="0 0 161 82" fill="none" xmlns="http://www.w3.org/2000/svg">
<path d="M23.3886 0.471998C27.0366 0.471998 30.2046 1.208 32.8926 2.68C35.6446 4.152 37.7566 6.136 39.2286 8.632V1.144H58.0446V54.424C58.0446 59.48 57.0846 64.024 55.1646 68.056C53.2446 72.152 50.2366 75.416 46.1406 77.848C42.1086 80.28 36.9886 81.496 30.7806 81.496C22.4606 81.496 15.8046 79.544 10.8126 75.64C5.82063 71.736 2.97263 66.424 2.26863 59.704H20.7966C21.1806 61.432 22.1406 62.776 23.6766 63.736C25.2126 64.696 27.1966 65.176 29.6286 65.176C36.0286 65.176 39.2286 61.592 39.2286 54.424V47.512C37.7566 50.008 35.6446 51.992 32.8926 53.464C30.2046 54.936 27.0366 55.672 23.3886 55.672C19.1006 55.672 15.1966 54.552 11.6766 52.312C8.22063 50.072 5.46863 46.872 3.42063 42.712C1.43663 38.488 0.444625 33.592 0.444625 28.024C0.444625 22.456 1.43663 17.592 3.42063 13.432C5.46863 9.272 8.22063 6.072 11.6766 3.832C15.1966 1.592 19.1006 0.471998 23.3886 0.471998ZM39.2286 28.024C39.2286 24.568 38.2686 21.848 36.3486 19.864C34.4926 17.88 32.1886 16.888 29.4366 16.888C26.6206 16.888 24.2846 17.88 22.4286 19.864C20.5726 21.784 19.6446 24.504 19.6446 28.024C19.6446 31.48 20.5726 34.232 22.4286 36.28C24.2846 38.264 26.6206 39.256 29.4366 39.256C32.1886 39.256 34.4926 38.264 36.3486 36.28C38.2686 34.296 39.2286 31.544 39.2286 28.024ZM139.135 0.663996C145.919 0.663996 151.231 2.712 155.071 6.808C158.975 10.904 160.927 16.504 160.927 23.608V55H142.111V26.104C142.111 23.224 141.311 20.984 139.711 19.384C138.111 17.784 135.935 16.984 133.183 16.984C130.431 16.984 128.255 17.784 126.655 19.384C125.055 20.984 124.255 23.224 124.255 26.104V55H105.439V26.104C105.439 23.224 104.639 20.984 103.039 19.384C101.503 17.784 99.3586 16.984 96.6066 16.984C93.7906 16.984 91.5826 17.784 89.9826 19.384C88.3826 20.984 87.5826 23.224 87.5826 26.104V55H68.7666V1.144H87.5826V8.248C89.2466 5.944 91.3906 4.12 94.0146 2.776C96.7026 1.368 99.7746 0.663996 103.231 0.663996C107.199 0.663996 110.719 1.528 113.791 3.256C116.927 4.984 119.391 7.416 121.183 10.552C123.103 7.608 125.631 5.24 128.767 3.448C131.903 1.592 135.359 0.663996 139.135 0.663996Z" fill="url(#paint0_linear_1_734)"/>
<defs>
<linearGradient id="paint0_linear_1_734" x1="-16.7636" y1="21" x2="177.2" y2="21" gradientUnits="userSpaceOnUse">
<stop stop-color="#3632F3"/>
<stop offset="1" stop-color="#F926A5"/>
</linearGradient>
</defs>
</svg>
