<svg width="17" height="12" viewBox="0 0 17 12" fill="none" xmlns="http://www.w3.org/2000/svg">
<path d="M0.503 1.884L8.5 5.882L16.497 1.884C16.4674 1.37444 16.2441 0.895488 15.8728 0.545227C15.5016 0.194965 15.0104 -9.35847e-05 14.5 3.36834e-08H2.5C1.98958 -9.35847e-05 1.49845 0.194965 1.12718 0.545227C0.755908 0.895488 0.532604 1.37444 0.503 1.884Z" fill="#6B7280"/>
<path d="M16.5 4.118L8.5 8.118L0.5 4.118V10C0.5 10.5304 0.710714 11.0391 1.08579 11.4142C1.46086 11.7893 1.96957 12 2.5 12H14.5C15.0304 12 15.5391 11.7893 15.9142 11.4142C16.2893 11.0391 16.5 10.5304 16.5 10V4.118Z" fill="#6B7280"/>
</svg>
